<?xml version="1.0" encoding="UTF-8"?>
<svg xmlns="http://www.w3.org/2000/svg" width="541" height="37">
   <defs>
      <style type="text/css">
    @namespace "http://www.w3.org/2000/svg";
    .line                 {fill: none; stroke: #332900; stroke-width: 1;}
    .bold-line            {stroke: #141000; shape-rendering: crispEdges; stroke-width: 2;}
    .thin-line            {stroke: #1F1800; shape-rendering: crispEdges}
    .filled               {fill: #332900; stroke: none;}
    text.terminal         {font-family: Verdana, Sans-serif;
                            font-size: 12px;
                            fill: #141000;
                            font-weight: bold;
                          }
    text.nonterminal      {font-family: Verdana, Sans-serif;
                            font-size: 12px;
                            fill: #1A1400;
                            font-weight: normal;
                          }
    text.regexp           {font-family: Verdana, Sans-serif;
                            font-size: 12px;
                            fill: #1F1800;
                            font-weight: normal;
                          }
    rect, circle, polygon {fill: #332900; stroke: #332900;}
    rect.terminal         {fill: #FFDB4D; stroke: #332900; stroke-width: 1;}
    rect.nonterminal      {fill: #FFEC9E; stroke: #332900; stroke-width: 1;}
    rect.text             {fill: none; stroke: none;}
    polygon.regexp        {fill: #FFF4C7; stroke: #332900; stroke-width: 1;}
  </style>
   </defs>
   <polygon points="9 17 1 13 1 21"/>
   <polygon points="17 17 9 13 9 21"/>
   <rect x="31" y="3" width="96" height="32" rx="10"/>
   <rect x="29"
         y="1"
         width="96"
         height="32"
         class="terminal"
         rx="10"/>
   <text class="terminal" x="39" y="21">datastream</text>
   <a xmlns:xlink="http://www.w3.org/1999/xlink"
      xlink:href="#DatastreamName"
      xlink:title="DatastreamName">
      <rect x="147" y="3" width="132" height="32"/>
      <rect x="145" y="1" width="132" height="32" class="nonterminal"/>
      <text class="nonterminal" x="155" y="21">DatastreamName</text>
   </a>
   <rect x="299" y="3" width="24" height="32" rx="10"/>
   <rect x="297"
         y="1"
         width="24"
         height="32"
         class="terminal"
         rx="10"/>
   <text class="terminal" x="307" y="21">:</text>
   <a xmlns:xlink="http://www.w3.org/1999/xlink"
      xlink:href="#ObservationType"
      xlink:title="ObservationType">
      <rect x="343" y="3" width="126" height="32"/>
      <rect x="341" y="1" width="126" height="32" class="nonterminal"/>
      <text class="nonterminal" x="351" y="21">ObservationType</text>
   </a>
   <rect x="489" y="3" width="24" height="32" rx="10"/>
   <rect x="487"
         y="1"
         width="24"
         height="32"
         class="terminal"
         rx="10"/>
   <text class="terminal" x="497" y="21">;</text>
   <path class="line"
         d="m17 17 h2 m0 0 h10 m96 0 h10 m0 0 h10 m132 0 h10 m0 0 h10 m24 0 h10 m0 0 h10 m126 0 h10 m0 0 h10 m24 0 h10 m3 0 h-3"/>
   <polygon points="531 17 539 13 539 21"/>
   <polygon points="531 17 523 13 523 21"/>
</svg>
