<?xml version="1.0" encoding="UTF-8"?>
<svg xmlns="http://www.w3.org/2000/svg" width="509" height="155">
   <defs>
      <style type="text/css">
    @namespace "http://www.w3.org/2000/svg";
    .line                 {fill: none; stroke: #332900; stroke-width: 1;}
    .bold-line            {stroke: #141000; shape-rendering: crispEdges; stroke-width: 2;}
    .thin-line            {stroke: #1F1800; shape-rendering: crispEdges}
    .filled               {fill: #332900; stroke: none;}
    text.terminal         {font-family: Verdana, Sans-serif;
                            font-size: 12px;
                            fill: #141000;
                            font-weight: bold;
                          }
    text.nonterminal      {font-family: Verdana, Sans-serif;
                            font-size: 12px;
                            fill: #1A1400;
                            font-weight: normal;
                          }
    text.regexp           {font-family: Verdana, Sans-serif;
                            font-size: 12px;
                            fill: #1F1800;
                            font-weight: normal;
                          }
    rect, circle, polygon {fill: #332900; stroke: #332900;}
    rect.terminal         {fill: #FFDB4D; stroke: #332900; stroke-width: 1;}
    rect.nonterminal      {fill: #FFEC9E; stroke: #332900; stroke-width: 1;}
    rect.text             {fill: none; stroke: none;}
    polygon.regexp        {fill: #FFF4C7; stroke: #332900; stroke-width: 1;}
  </style>
   </defs>
   <polygon points="9 17 1 13 1 21"/>
   <polygon points="17 17 9 13 9 21"/>
   <a xmlns:xlink="http://www.w3.org/1999/xlink"
      xlink:href="#Condition"
      xlink:title="Condition">
      <rect x="31" y="3" width="80" height="32"/>
      <rect x="29" y="1" width="80" height="32" class="nonterminal"/>
      <text class="nonterminal" x="39" y="21">Condition</text>
   </a>
   <a xmlns:xlink="http://www.w3.org/1999/xlink"
      xlink:href="#DetectionExtent"
      xlink:title="DetectionExtent">
      <rect x="151" y="35" width="122" height="32"/>
      <rect x="149" y="33" width="122" height="32" class="nonterminal"/>
      <text class="nonterminal" x="159" y="53">DetectionExtent</text>
   </a>
   <a xmlns:xlink="http://www.w3.org/1999/xlink"
      xlink:href="#SpatialGranularity"
      xlink:title="SpatialGranularity">
      <rect x="333" y="35" width="134" height="32"/>
      <rect x="331" y="33" width="134" height="32" class="nonterminal"/>
      <text class="nonterminal" x="341" y="53">SpatialGranularity</text>
   </a>
   <a xmlns:xlink="http://www.w3.org/1999/xlink"
      xlink:href="#DetectionTime"
      xlink:title="DetectionTime">
      <rect x="351" y="121" width="110" height="32"/>
      <rect x="349" y="119" width="110" height="32" class="nonterminal"/>
      <text class="nonterminal" x="359" y="139">DetectionTime</text>
   </a>
   <path class="line"
         d="m17 17 h2 m0 0 h10 m80 0 h10 m20 0 h10 m0 0 h132 m-162 0 h20 m142 0 h20 m-182 0 q10 0 10 10 m162 0 q0 -10 10 -10 m-172 10 v12 m162 0 v-12 m-162 12 q0 10 10 10 m142 0 q10 0 10 -10 m-152 10 h10 m122 0 h10 m40 -32 h10 m0 0 h144 m-174 0 h20 m154 0 h20 m-194 0 q10 0 10 10 m174 0 q0 -10 10 -10 m-184 10 v12 m174 0 v-12 m-174 12 q0 10 10 10 m154 0 q10 0 10 -10 m-164 10 h10 m134 0 h10 m22 -32 l2 0 m2 0 l2 0 m2 0 l2 0 m-200 86 l2 0 m2 0 l2 0 m2 0 l2 0 m22 0 h10 m0 0 h120 m-150 0 h20 m130 0 h20 m-170 0 q10 0 10 10 m150 0 q0 -10 10 -10 m-160 10 v12 m150 0 v-12 m-150 12 q0 10 10 10 m130 0 q10 0 10 -10 m-140 10 h10 m110 0 h10 m23 -32 h-3"/>
   <polygon points="499 103 507 99 507 107"/>
   <polygon points="499 103 491 99 491 107"/>
</svg>
