<?xml version="1.0" encoding="UTF-8"?>
<svg xmlns="http://www.w3.org/2000/svg" width="597" height="201">
   <defs>
      <style type="text/css">
    @namespace "http://www.w3.org/2000/svg";
    .line                 {fill: none; stroke: #332900; stroke-width: 1;}
    .bold-line            {stroke: #141000; shape-rendering: crispEdges; stroke-width: 2;}
    .thin-line            {stroke: #1F1800; shape-rendering: crispEdges}
    .filled               {fill: #332900; stroke: none;}
    text.terminal         {font-family: Verdana, Sans-serif;
                            font-size: 12px;
                            fill: #141000;
                            font-weight: bold;
                          }
    text.nonterminal      {font-family: Verdana, Sans-serif;
                            font-size: 12px;
                            fill: #1A1400;
                            font-weight: normal;
                          }
    text.regexp           {font-family: Verdana, Sans-serif;
                            font-size: 12px;
                            fill: #1F1800;
                            font-weight: normal;
                          }
    rect, circle, polygon {fill: #332900; stroke: #332900;}
    rect.terminal         {fill: #FFDB4D; stroke: #332900; stroke-width: 1;}
    rect.nonterminal      {fill: #FFEC9E; stroke: #332900; stroke-width: 1;}
    rect.text             {fill: none; stroke: none;}
    polygon.regexp        {fill: #FFF4C7; stroke: #332900; stroke-width: 1;}
  </style>
   </defs>
   <polygon points="9 17 1 13 1 21"/>
   <polygon points="17 17 9 13 9 21"/>
   <rect x="31" y="3" width="62" height="32" rx="10"/>
   <rect x="29"
         y="1"
         width="62"
         height="32"
         class="terminal"
         rx="10"/>
   <text class="terminal" x="39" y="21">extent</text>
   <a xmlns:xlink="http://www.w3.org/1999/xlink"
      xlink:href="#Identifier"
      xlink:title="Identifier">
      <rect x="113" y="3" width="78" height="32"/>
      <rect x="111" y="1" width="78" height="32" class="nonterminal"/>
      <text class="nonterminal" x="121" y="21">Identifier</text>
   </a>
   <rect x="211" y="3" width="30" height="32" rx="10"/>
   <rect x="209"
         y="1"
         width="30"
         height="32"
         class="terminal"
         rx="10"/>
   <text class="terminal" x="219" y="21">=</text>
   <rect x="261" y="3" width="28" height="32" rx="10"/>
   <rect x="259"
         y="1"
         width="28"
         height="32"
         class="terminal"
         rx="10"/>
   <text class="terminal" x="269" y="21">{</text>
   <rect x="309" y="3" width="68" height="32" rx="10"/>
   <rect x="307"
         y="1"
         width="68"
         height="32"
         class="terminal"
         rx="10"/>
   <text class="terminal" x="317" y="21">feature</text>
   <rect x="397" y="3" width="24" height="32" rx="10"/>
   <rect x="395"
         y="1"
         width="24"
         height="32"
         class="terminal"
         rx="10"/>
   <text class="terminal" x="405" y="21">:</text>
   <a xmlns:xlink="http://www.w3.org/1999/xlink"
      xlink:href="#FeatureList"
      xlink:title="FeatureList">
      <rect x="441" y="3" width="90" height="32"/>
      <rect x="439" y="1" width="90" height="32" class="nonterminal"/>
      <text class="nonterminal" x="449" y="21">FeatureList</text>
   </a>
   <rect x="551" y="3" width="24" height="32" rx="10"/>
   <rect x="549"
         y="1"
         width="24"
         height="32"
         class="terminal"
         rx="10"/>
   <text class="terminal" x="559" y="21">,</text>
   <rect x="51" y="69" width="46" height="32" rx="10"/>
   <rect x="49"
         y="67"
         width="46"
         height="32"
         class="terminal"
         rx="10"/>
   <text class="terminal" x="59" y="87">srid</text>
   <rect x="117" y="69" width="24" height="32" rx="10"/>
   <rect x="115"
         y="67"
         width="24"
         height="32"
         class="terminal"
         rx="10"/>
   <text class="terminal" x="125" y="87">:</text>
   <a xmlns:xlink="http://www.w3.org/1999/xlink"
      xlink:href="#EPSGCode"
      xlink:title="EPSGCode">
      <rect x="161" y="69" width="86" height="32"/>
      <rect x="159" y="67" width="86" height="32" class="nonterminal"/>
      <text class="nonterminal" x="169" y="87">EPSGCode</text>
   </a>
   <rect x="287" y="101" width="24" height="32" rx="10"/>
   <rect x="285"
         y="99"
         width="24"
         height="32"
         class="terminal"
         rx="10"/>
   <text class="terminal" x="295" y="119">,</text>
   <rect x="331" y="101" width="60" height="32" rx="10"/>
   <rect x="329"
         y="99"
         width="60"
         height="32"
         class="terminal"
         rx="10"/>
   <text class="terminal" x="339" y="119">buffer</text>
   <rect x="411" y="101" width="24" height="32" rx="10"/>
   <rect x="409"
         y="99"
         width="24"
         height="32"
         class="terminal"
         rx="10"/>
   <text class="terminal" x="419" y="119">:</text>
   <a xmlns:xlink="http://www.w3.org/1999/xlink"
      xlink:href="#Distance"
      xlink:title="Distance">
      <rect x="455" y="101" width="74" height="32"/>
      <rect x="453" y="99" width="74" height="32" class="nonterminal"/>
      <text class="nonterminal" x="463" y="119">Distance</text>
   </a>
   <rect x="535" y="167" width="34" height="32" rx="10"/>
   <rect x="533"
         y="165"
         width="34"
         height="32"
         class="terminal"
         rx="10"/>
   <text class="terminal" x="543" y="185">};</text>
   <path class="line"
         d="m17 17 h2 m0 0 h10 m62 0 h10 m0 0 h10 m78 0 h10 m0 0 h10 m30 0 h10 m0 0 h10 m28 0 h10 m0 0 h10 m68 0 h10 m0 0 h10 m24 0 h10 m0 0 h10 m90 0 h10 m0 0 h10 m24 0 h10 m2 0 l2 0 m2 0 l2 0 m2 0 l2 0 m-568 66 l2 0 m2 0 l2 0 m2 0 l2 0 m2 0 h10 m46 0 h10 m0 0 h10 m24 0 h10 m0 0 h10 m86 0 h10 m20 0 h10 m0 0 h252 m-282 0 h20 m262 0 h20 m-302 0 q10 0 10 10 m282 0 q0 -10 10 -10 m-292 10 v12 m282 0 v-12 m-282 12 q0 10 10 10 m262 0 q10 0 10 -10 m-272 10 h10 m24 0 h10 m0 0 h10 m60 0 h10 m0 0 h10 m24 0 h10 m0 0 h10 m74 0 h10 m22 -32 l2 0 m2 0 l2 0 m2 0 l2 0 m-58 98 l2 0 m2 0 l2 0 m2 0 l2 0 m2 0 h10 m34 0 h10 m3 0 h-3"/>
   <polygon points="587 181 595 177 595 185"/>
   <polygon points="587 181 579 177 579 185"/>
</svg>
