<?xml version="1.0" encoding="UTF-8"?>
<svg xmlns="http://www.w3.org/2000/svg" width="443" height="185">
   <defs>
      <style type="text/css">
    @namespace "http://www.w3.org/2000/svg";
    .line                 {fill: none; stroke: #332900; stroke-width: 1;}
    .bold-line            {stroke: #141000; shape-rendering: crispEdges; stroke-width: 2;}
    .thin-line            {stroke: #1F1800; shape-rendering: crispEdges}
    .filled               {fill: #332900; stroke: none;}
    text.terminal         {font-family: Verdana, Sans-serif;
                            font-size: 12px;
                            fill: #141000;
                            font-weight: bold;
                          }
    text.nonterminal      {font-family: Verdana, Sans-serif;
                            font-size: 12px;
                            fill: #1A1400;
                            font-weight: normal;
                          }
    text.regexp           {font-family: Verdana, Sans-serif;
                            font-size: 12px;
                            fill: #1F1800;
                            font-weight: normal;
                          }
    rect, circle, polygon {fill: #332900; stroke: #332900;}
    rect.terminal         {fill: #FFDB4D; stroke: #332900; stroke-width: 1;}
    rect.nonterminal      {fill: #FFEC9E; stroke: #332900; stroke-width: 1;}
    rect.text             {fill: none; stroke: none;}
    polygon.regexp        {fill: #FFF4C7; stroke: #332900; stroke-width: 1;}
  </style>
   </defs>
   <polygon points="9 33 1 29 1 37"/>
   <polygon points="17 33 9 29 9 37"/>
   <a xmlns:xlink="http://www.w3.org/1999/xlink"
      xlink:href="#Digit"
      xlink:title="Digit">
      <rect x="51" y="19" width="48" height="32"/>
      <rect x="49" y="17" width="48" height="32" class="nonterminal"/>
      <text class="nonterminal" x="59" y="37">Digit</text>
   </a>
   <rect x="159" y="19" width="24" height="32" rx="10"/>
   <rect x="157"
         y="17"
         width="24"
         height="32"
         class="terminal"
         rx="10"/>
   <text class="terminal" x="167" y="37">.</text>
   <a xmlns:xlink="http://www.w3.org/1999/xlink"
      xlink:href="#Digit"
      xlink:title="Digit">
      <rect x="223" y="19" width="48" height="32"/>
      <rect x="221" y="17" width="48" height="32" class="nonterminal"/>
      <text class="nonterminal" x="231" y="37">Digit</text>
   </a>
   <rect x="351" y="19" width="32" height="32" rx="10"/>
   <rect x="349"
         y="17"
         width="32"
         height="32"
         class="terminal"
         rx="10"/>
   <text class="terminal" x="359" y="37">m</text>
   <rect x="351" y="63" width="44" height="32" rx="10"/>
   <rect x="349"
         y="61"
         width="44"
         height="32"
         class="terminal"
         rx="10"/>
   <text class="terminal" x="359" y="81">mm</text>
   <rect x="351" y="107" width="40" height="32" rx="10"/>
   <rect x="349"
         y="105"
         width="40"
         height="32"
         class="terminal"
         rx="10"/>
   <text class="terminal" x="359" y="125">cm</text>
   <rect x="351" y="151" width="42" height="32" rx="10"/>
   <rect x="349"
         y="149"
         width="42"
         height="32"
         class="terminal"
         rx="10"/>
   <text class="terminal" x="359" y="169">Km</text>
   <path class="line"
         d="m17 33 h2 m20 0 h10 m48 0 h10 m-88 0 l20 0 m-1 0 q-9 0 -9 -10 l0 -12 q0 -10 10 -10 m68 32 l20 0 m-20 0 q10 0 10 -10 l0 -12 q0 -10 -10 -10 m-68 0 h10 m0 0 h58 m40 32 h10 m24 0 h10 m20 0 h10 m48 0 h10 m-88 0 l20 0 m-1 0 q-9 0 -9 -10 l0 -12 q0 -10 10 -10 m68 32 l20 0 m-20 0 q10 0 10 -10 l0 -12 q0 -10 -10 -10 m-68 0 h10 m0 0 h58 m-152 32 h20 m152 0 h20 m-192 0 q10 0 10 10 m172 0 q0 -10 10 -10 m-182 10 v14 m172 0 v-14 m-172 14 q0 10 10 10 m152 0 q10 0 10 -10 m-162 10 h10 m0 0 h142 m40 -34 h10 m32 0 h10 m0 0 h12 m-84 0 h20 m64 0 h20 m-104 0 q10 0 10 10 m84 0 q0 -10 10 -10 m-94 10 v24 m84 0 v-24 m-84 24 q0 10 10 10 m64 0 q10 0 10 -10 m-74 10 h10 m44 0 h10 m-74 -10 v20 m84 0 v-20 m-84 20 v24 m84 0 v-24 m-84 24 q0 10 10 10 m64 0 q10 0 10 -10 m-74 10 h10 m40 0 h10 m0 0 h4 m-74 -10 v20 m84 0 v-20 m-84 20 v24 m84 0 v-24 m-84 24 q0 10 10 10 m64 0 q10 0 10 -10 m-74 10 h10 m42 0 h10 m0 0 h2 m23 -132 h-3"/>
   <polygon points="433 33 441 29 441 37"/>
   <polygon points="433 33 425 29 425 37"/>
</svg>
