<?xml version="1.0" encoding="UTF-8"?>
<svg xmlns="http://www.w3.org/2000/svg" width="495" height="81">
   <defs>
      <style type="text/css">
    @namespace "http://www.w3.org/2000/svg";
    .line                 {fill: none; stroke: #332900; stroke-width: 1;}
    .bold-line            {stroke: #141000; shape-rendering: crispEdges; stroke-width: 2;}
    .thin-line            {stroke: #1F1800; shape-rendering: crispEdges}
    .filled               {fill: #332900; stroke: none;}
    text.terminal         {font-family: Verdana, Sans-serif;
                            font-size: 12px;
                            fill: #141000;
                            font-weight: bold;
                          }
    text.nonterminal      {font-family: Verdana, Sans-serif;
                            font-size: 12px;
                            fill: #1A1400;
                            font-weight: normal;
                          }
    text.regexp           {font-family: Verdana, Sans-serif;
                            font-size: 12px;
                            fill: #1F1800;
                            font-weight: normal;
                          }
    rect, circle, polygon {fill: #332900; stroke: #332900;}
    rect.terminal         {fill: #FFDB4D; stroke: #332900; stroke-width: 1;}
    rect.nonterminal      {fill: #FFEC9E; stroke: #332900; stroke-width: 1;}
    rect.text             {fill: none; stroke: none;}
    polygon.regexp        {fill: #FFF4C7; stroke: #332900; stroke-width: 1;}
  </style>
   </defs>
   <polygon points="9 17 1 13 1 21"/>
   <polygon points="17 17 9 13 9 21"/>
   <rect x="31" y="3" width="76" height="32" rx="10"/>
   <rect x="29"
         y="1"
         width="76"
         height="32"
         class="terminal"
         rx="10"/>
   <text class="terminal" x="39" y="21">duration</text>
   <rect x="127" y="3" width="26" height="32" rx="10"/>
   <rect x="125"
         y="1"
         width="26"
         height="32"
         class="terminal"
         rx="10"/>
   <text class="terminal" x="135" y="21">(</text>
   <rect x="193" y="3" width="26" height="32" rx="10"/>
   <rect x="191"
         y="1"
         width="26"
         height="32"
         class="terminal"
         rx="10"/>
   <text class="terminal" x="201" y="21">"</text>
   <a xmlns:xlink="http://www.w3.org/1999/xlink"
      xlink:href="#Time"
      xlink:title="Time">
      <rect x="239" y="3" width="50" height="32"/>
      <rect x="237" y="1" width="50" height="32" class="nonterminal"/>
      <text class="nonterminal" x="247" y="21">Time</text>
   </a>
   <rect x="309" y="3" width="26" height="32" rx="10"/>
   <rect x="307"
         y="1"
         width="26"
         height="32"
         class="terminal"
         rx="10"/>
   <text class="terminal" x="317" y="21">"</text>
   <a xmlns:xlink="http://www.w3.org/1999/xlink"
      xlink:href="#Number"
      xlink:title="Number">
      <rect x="193" y="47" width="70" height="32"/>
      <rect x="191" y="45" width="70" height="32" class="nonterminal"/>
      <text class="nonterminal" x="201" y="65">Number</text>
   </a>
   <rect x="283" y="47" width="24" height="32" rx="10"/>
   <rect x="281"
         y="45"
         width="24"
         height="32"
         class="terminal"
         rx="10"/>
   <text class="terminal" x="291" y="65">,</text>
   <a xmlns:xlink="http://www.w3.org/1999/xlink"
      xlink:href="#TimeUnit"
      xlink:title="TimeUnit">
      <rect x="327" y="47" width="74" height="32"/>
      <rect x="325" y="45" width="74" height="32" class="nonterminal"/>
      <text class="nonterminal" x="335" y="65">TimeUnit</text>
   </a>
   <rect x="441" y="3" width="26" height="32" rx="10"/>
   <rect x="439"
         y="1"
         width="26"
         height="32"
         class="terminal"
         rx="10"/>
   <text class="terminal" x="449" y="21">)</text>
   <path class="line"
         d="m17 17 h2 m0 0 h10 m76 0 h10 m0 0 h10 m26 0 h10 m20 0 h10 m26 0 h10 m0 0 h10 m50 0 h10 m0 0 h10 m26 0 h10 m0 0 h66 m-248 0 h20 m228 0 h20 m-268 0 q10 0 10 10 m248 0 q0 -10 10 -10 m-258 10 v24 m248 0 v-24 m-248 24 q0 10 10 10 m228 0 q10 0 10 -10 m-238 10 h10 m70 0 h10 m0 0 h10 m24 0 h10 m0 0 h10 m74 0 h10 m20 -44 h10 m26 0 h10 m3 0 h-3"/>
   <polygon points="485 17 493 13 493 21"/>
   <polygon points="485 17 477 13 477 21"/>
</svg>
