<?xml version="1.0" encoding="UTF-8"?>
<svg xmlns="http://www.w3.org/2000/svg" width="545" height="147">
   <defs>
      <style type="text/css">
    @namespace "http://www.w3.org/2000/svg";
    .line                 {fill: none; stroke: #332900; stroke-width: 1;}
    .bold-line            {stroke: #141000; shape-rendering: crispEdges; stroke-width: 2;}
    .thin-line            {stroke: #1F1800; shape-rendering: crispEdges}
    .filled               {fill: #332900; stroke: none;}
    text.terminal         {font-family: Verdana, Sans-serif;
                            font-size: 12px;
                            fill: #141000;
                            font-weight: bold;
                          }
    text.nonterminal      {font-family: Verdana, Sans-serif;
                            font-size: 12px;
                            fill: #1A1400;
                            font-weight: normal;
                          }
    text.regexp           {font-family: Verdana, Sans-serif;
                            font-size: 12px;
                            fill: #1F1800;
                            font-weight: normal;
                          }
    rect, circle, polygon {fill: #332900; stroke: #332900;}
    rect.terminal         {fill: #FFDB4D; stroke: #332900; stroke-width: 1;}
    rect.nonterminal      {fill: #FFEC9E; stroke: #332900; stroke-width: 1;}
    rect.text             {fill: none; stroke: none;}
    polygon.regexp        {fill: #FFF4C7; stroke: #332900; stroke-width: 1;}
  </style>
   </defs>
   <polygon points="9 61 1 57 1 65"/>
   <polygon points="17 61 9 57 9 65"/>
   <rect x="31" y="47" width="58" height="32" rx="10"/>
   <rect x="29"
         y="45"
         width="58"
         height="32"
         class="terminal"
         rx="10"/>
   <text class="terminal" x="39" y="65">event</text>
   <a xmlns:xlink="http://www.w3.org/1999/xlink"
      xlink:href="#EventName"
      xlink:title="EventName">
      <rect x="109" y="47" width="92" height="32"/>
      <rect x="107" y="45" width="92" height="32" class="nonterminal"/>
      <text class="nonterminal" x="117" y="65">EventName</text>
   </a>
   <rect x="221" y="47" width="26" height="32" rx="10"/>
   <rect x="219"
         y="45"
         width="26"
         height="32"
         class="terminal"
         rx="10"/>
   <text class="terminal" x="229" y="65">(</text>
   <a xmlns:xlink="http://www.w3.org/1999/xlink"
      xlink:href="#EventParameter"
      xlink:title="EventParameter">
      <rect x="287" y="47" width="122" height="32"/>
      <rect x="285" y="45" width="122" height="32" class="nonterminal"/>
      <text class="nonterminal" x="295" y="65">EventParameter</text>
   </a>
   <rect x="287" y="3" width="24" height="32" rx="10"/>
   <rect x="285"
         y="1"
         width="24"
         height="32"
         class="terminal"
         rx="10"/>
   <text class="terminal" x="295" y="21">,</text>
   <rect x="449" y="47" width="26" height="32" rx="10"/>
   <rect x="447"
         y="45"
         width="26"
         height="32"
         class="terminal"
         rx="10"/>
   <text class="terminal" x="457" y="65">)</text>
   <rect x="495" y="47" width="28" height="32" rx="10"/>
   <rect x="493"
         y="45"
         width="28"
         height="32"
         class="terminal"
         rx="10"/>
   <text class="terminal" x="503" y="65">{</text>
   <a xmlns:xlink="http://www.w3.org/1999/xlink"
      xlink:href="#DetectionRules"
      xlink:title="DetectionRules">
      <rect x="311" y="113" width="114" height="32"/>
      <rect x="309" y="111" width="114" height="32" class="nonterminal"/>
      <text class="nonterminal" x="319" y="131">DetectionRules</text>
   </a>
   <rect x="445" y="113" width="28" height="32" rx="10"/>
   <rect x="443"
         y="111"
         width="28"
         height="32"
         class="terminal"
         rx="10"/>
   <text class="terminal" x="453" y="131">}</text>
   <rect x="493" y="113" width="24" height="32" rx="10"/>
   <rect x="491"
         y="111"
         width="24"
         height="32"
         class="terminal"
         rx="10"/>
   <text class="terminal" x="501" y="131">;</text>
   <path class="line"
         d="m17 61 h2 m0 0 h10 m58 0 h10 m0 0 h10 m92 0 h10 m0 0 h10 m26 0 h10 m20 0 h10 m122 0 h10 m-162 0 l20 0 m-1 0 q-9 0 -9 -10 l0 -24 q0 -10 10 -10 m142 44 l20 0 m-20 0 q10 0 10 -10 l0 -24 q0 -10 -10 -10 m-142 0 h10 m24 0 h10 m0 0 h98 m20 44 h10 m26 0 h10 m0 0 h10 m28 0 h10 m2 0 l2 0 m2 0 l2 0 m2 0 l2 0 m-256 66 l2 0 m2 0 l2 0 m2 0 l2 0 m2 0 h10 m114 0 h10 m0 0 h10 m28 0 h10 m0 0 h10 m24 0 h10 m3 0 h-3"/>
   <polygon points="535 127 543 123 543 131"/>
   <polygon points="535 127 527 123 527 131"/>
</svg>
