<?xml version="1.0" encoding="UTF-8"?>
<svg xmlns="http://www.w3.org/2000/svg" width="427" height="201">
   <defs>
      <style type="text/css">
    @namespace "http://www.w3.org/2000/svg";
    .line                 {fill: none; stroke: #332900; stroke-width: 1;}
    .bold-line            {stroke: #141000; shape-rendering: crispEdges; stroke-width: 2;}
    .thin-line            {stroke: #1F1800; shape-rendering: crispEdges}
    .filled               {fill: #332900; stroke: none;}
    text.terminal         {font-family: Verdana, Sans-serif;
                            font-size: 12px;
                            fill: #141000;
                            font-weight: bold;
                          }
    text.nonterminal      {font-family: Verdana, Sans-serif;
                            font-size: 12px;
                            fill: #1A1400;
                            font-weight: normal;
                          }
    text.regexp           {font-family: Verdana, Sans-serif;
                            font-size: 12px;
                            fill: #1F1800;
                            font-weight: normal;
                          }
    rect, circle, polygon {fill: #332900; stroke: #332900;}
    rect.terminal         {fill: #FFDB4D; stroke: #332900; stroke-width: 1;}
    rect.nonterminal      {fill: #FFEC9E; stroke: #332900; stroke-width: 1;}
    rect.text             {fill: none; stroke: none;}
    polygon.regexp        {fill: #FFF4C7; stroke: #332900; stroke-width: 1;}
  </style>
   </defs>
   <polygon points="9 17 1 13 1 21"/>
   <polygon points="17 17 9 13 9 21"/>
   <a xmlns:xlink="http://www.w3.org/1999/xlink"
      xlink:href="#EventName"
      xlink:title="EventName">
      <rect x="71" y="35" width="92" height="32"/>
      <rect x="69" y="33" width="92" height="32" class="nonterminal"/>
      <text class="nonterminal" x="79" y="53">EventName</text>
   </a>
   <rect x="183" y="35" width="24" height="32" rx="10"/>
   <rect x="181"
         y="33"
         width="24"
         height="32"
         class="terminal"
         rx="10"/>
   <text class="terminal" x="191" y="53">.</text>
   <a xmlns:xlink="http://www.w3.org/1999/xlink"
      xlink:href="#DatastreamName"
      xlink:title="DatastreamName">
      <rect x="247" y="3" width="132" height="32"/>
      <rect x="245" y="1" width="132" height="32" class="nonterminal"/>
      <text class="nonterminal" x="255" y="21">DatastreamName</text>
   </a>
   <a xmlns:xlink="http://www.w3.org/1999/xlink"
      xlink:href="#Function"
      xlink:title="Function">
      <rect x="51" y="79" width="74" height="32"/>
      <rect x="49" y="77" width="74" height="32" class="nonterminal"/>
      <text class="nonterminal" x="59" y="97">Function</text>
   </a>
   <a xmlns:xlink="http://www.w3.org/1999/xlink"
      xlink:href="#ArithmeticExpression"
      xlink:title="ArithmeticExpression">
      <rect x="51" y="123" width="152" height="32"/>
      <rect x="49" y="121" width="152" height="32" class="nonterminal"/>
      <text class="nonterminal" x="59" y="141">ArithmeticExpression</text>
   </a>
   <a xmlns:xlink="http://www.w3.org/1999/xlink"
      xlink:href="#Value"
      xlink:title="Value">
      <rect x="51" y="167" width="56" height="32"/>
      <rect x="49" y="165" width="56" height="32" class="nonterminal"/>
      <text class="nonterminal" x="59" y="185">Value</text>
   </a>
   <path class="line"
         d="m17 17 h2 m40 0 h10 m0 0 h146 m-176 0 h20 m156 0 h20 m-196 0 q10 0 10 10 m176 0 q0 -10 10 -10 m-186 10 v12 m176 0 v-12 m-176 12 q0 10 10 10 m156 0 q10 0 10 -10 m-166 10 h10 m92 0 h10 m0 0 h10 m24 0 h10 m20 -32 h10 m132 0 h10 m-368 0 h20 m348 0 h20 m-388 0 q10 0 10 10 m368 0 q0 -10 10 -10 m-378 10 v56 m368 0 v-56 m-368 56 q0 10 10 10 m348 0 q10 0 10 -10 m-358 10 h10 m74 0 h10 m0 0 h254 m-358 -10 v20 m368 0 v-20 m-368 20 v24 m368 0 v-24 m-368 24 q0 10 10 10 m348 0 q10 0 10 -10 m-358 10 h10 m152 0 h10 m0 0 h176 m-358 -10 v20 m368 0 v-20 m-368 20 v24 m368 0 v-24 m-368 24 q0 10 10 10 m348 0 q10 0 10 -10 m-358 10 h10 m56 0 h10 m0 0 h272 m23 -164 h-3"/>
   <polygon points="417 17 425 13 425 21"/>
   <polygon points="417 17 409 13 409 21"/>
</svg>
