<?xml version="1.0" encoding="UTF-8"?>
<svg xmlns="http://www.w3.org/2000/svg" width="299" height="125">
   <defs>
      <style type="text/css">
    @namespace "http://www.w3.org/2000/svg";
    .line                 {fill: none; stroke: #332900; stroke-width: 1;}
    .bold-line            {stroke: #141000; shape-rendering: crispEdges; stroke-width: 2;}
    .thin-line            {stroke: #1F1800; shape-rendering: crispEdges}
    .filled               {fill: #332900; stroke: none;}
    text.terminal         {font-family: Verdana, Sans-serif;
                            font-size: 12px;
                            fill: #141000;
                            font-weight: bold;
                          }
    text.nonterminal      {font-family: Verdana, Sans-serif;
                            font-size: 12px;
                            fill: #1A1400;
                            font-weight: normal;
                          }
    text.regexp           {font-family: Verdana, Sans-serif;
                            font-size: 12px;
                            fill: #1F1800;
                            font-weight: normal;
                          }
    rect, circle, polygon {fill: #332900; stroke: #332900;}
    rect.terminal         {fill: #FFDB4D; stroke: #332900; stroke-width: 1;}
    rect.nonterminal      {fill: #FFEC9E; stroke: #332900; stroke-width: 1;}
    rect.text             {fill: none; stroke: none;}
    polygon.regexp        {fill: #FFF4C7; stroke: #332900; stroke-width: 1;}
  </style>
   </defs>
   <polygon points="9 17 1 13 1 21"/>
   <polygon points="17 17 9 13 9 21"/>
   <a xmlns:xlink="http://www.w3.org/1999/xlink"
      xlink:href="#Feature"
      xlink:title="Feature">
      <rect x="51" y="3" width="68" height="32"/>
      <rect x="49" y="1" width="68" height="32" class="nonterminal"/>
      <text class="nonterminal" x="59" y="21">Feature</text>
   </a>
   <rect x="51" y="91" width="26" height="32" rx="10"/>
   <rect x="49"
         y="89"
         width="26"
         height="32"
         class="terminal"
         rx="10"/>
   <text class="terminal" x="59" y="109">[</text>
   <a xmlns:xlink="http://www.w3.org/1999/xlink"
      xlink:href="#Feature"
      xlink:title="Feature">
      <rect x="117" y="91" width="68" height="32"/>
      <rect x="115" y="89" width="68" height="32" class="nonterminal"/>
      <text class="nonterminal" x="125" y="109">Feature</text>
   </a>
   <rect x="117" y="47" width="24" height="32" rx="10"/>
   <rect x="115"
         y="45"
         width="24"
         height="32"
         class="terminal"
         rx="10"/>
   <text class="terminal" x="125" y="65">,</text>
   <rect x="225" y="91" width="26" height="32" rx="10"/>
   <rect x="223"
         y="89"
         width="26"
         height="32"
         class="terminal"
         rx="10"/>
   <text class="terminal" x="233" y="109">]</text>
   <path class="line"
         d="m17 17 h2 m20 0 h10 m68 0 h10 m0 0 h132 m-240 0 h20 m220 0 h20 m-260 0 q10 0 10 10 m240 0 q0 -10 10 -10 m-250 10 v68 m240 0 v-68 m-240 68 q0 10 10 10 m220 0 q10 0 10 -10 m-230 10 h10 m26 0 h10 m20 0 h10 m68 0 h10 m-108 0 l20 0 m-1 0 q-9 0 -9 -10 l0 -24 q0 -10 10 -10 m88 44 l20 0 m-20 0 q10 0 10 -10 l0 -24 q0 -10 -10 -10 m-88 0 h10 m24 0 h10 m0 0 h44 m20 44 h10 m26 0 h10 m23 -88 h-3"/>
   <polygon points="289 17 297 13 297 21"/>
   <polygon points="289 17 281 13 281 21"/>
</svg>
