<?xml version="1.0" encoding="UTF-8"?>
<svg xmlns="http://www.w3.org/2000/svg" width="765" height="169">
   <defs>
      <style type="text/css">
    @namespace "http://www.w3.org/2000/svg";
    .line                 {fill: none; stroke: #332900; stroke-width: 1;}
    .bold-line            {stroke: #141000; shape-rendering: crispEdges; stroke-width: 2;}
    .thin-line            {stroke: #1F1800; shape-rendering: crispEdges}
    .filled               {fill: #332900; stroke: none;}
    text.terminal         {font-family: Verdana, Sans-serif;
                            font-size: 12px;
                            fill: #141000;
                            font-weight: bold;
                          }
    text.nonterminal      {font-family: Verdana, Sans-serif;
                            font-size: 12px;
                            fill: #1A1400;
                            font-weight: normal;
                          }
    text.regexp           {font-family: Verdana, Sans-serif;
                            font-size: 12px;
                            fill: #1F1800;
                            font-weight: normal;
                          }
    rect, circle, polygon {fill: #332900; stroke: #332900;}
    rect.terminal         {fill: #FFDB4D; stroke: #332900; stroke-width: 1;}
    rect.nonterminal      {fill: #FFEC9E; stroke: #332900; stroke-width: 1;}
    rect.text             {fill: none; stroke: none;}
    polygon.regexp        {fill: #FFF4C7; stroke: #332900; stroke-width: 1;}
  </style>
   </defs>
   <polygon points="9 17 1 13 1 21"/>
   <polygon points="17 17 9 13 9 21"/>
   <rect x="71" y="3" width="64" height="32" rx="10"/>
   <rect x="69"
         y="1"
         width="64"
         height="32"
         class="terminal"
         rx="10"/>
   <text class="terminal" x="79" y="21">POINT</text>
   <rect x="155" y="3" width="26" height="32" rx="10"/>
   <rect x="153"
         y="1"
         width="26"
         height="32"
         class="terminal"
         rx="10"/>
   <text class="terminal" x="163" y="21">(</text>
   <rect x="71" y="69" width="106" height="32" rx="10"/>
   <rect x="69"
         y="67"
         width="106"
         height="32"
         class="terminal"
         rx="10"/>
   <text class="terminal" x="79" y="87">LINESTRING</text>
   <rect x="197" y="69" width="26" height="32" rx="10"/>
   <rect x="195"
         y="67"
         width="26"
         height="32"
         class="terminal"
         rx="10"/>
   <text class="terminal" x="205" y="87">(</text>
   <a xmlns:xlink="http://www.w3.org/1999/xlink"
      xlink:href="#coordinates"
      xlink:title="coordinates">
      <rect x="263" y="69" width="94" height="32"/>
      <rect x="261" y="67" width="94" height="32" class="nonterminal"/>
      <text class="nonterminal" x="271" y="87">coordinates</text>
   </a>
   <rect x="377" y="69" width="24" height="32" rx="10"/>
   <rect x="375"
         y="67"
         width="24"
         height="32"
         class="terminal"
         rx="10"/>
   <text class="terminal" x="385" y="87">,</text>
   <a xmlns:xlink="http://www.w3.org/1999/xlink"
      xlink:href="#coordinates"
      xlink:title="coordinates">
      <rect x="461" y="3" width="94" height="32"/>
      <rect x="459" y="1" width="94" height="32" class="nonterminal"/>
      <text class="nonterminal" x="469" y="21">coordinates</text>
   </a>
   <rect x="575" y="3" width="26" height="32" rx="10"/>
   <rect x="573"
         y="1"
         width="26"
         height="32"
         class="terminal"
         rx="10"/>
   <text class="terminal" x="583" y="21">)</text>
   <rect x="51" y="135" width="88" height="32" rx="10"/>
   <rect x="49"
         y="133"
         width="88"
         height="32"
         class="terminal"
         rx="10"/>
   <text class="terminal" x="59" y="153">POLYGON</text>
   <rect x="159" y="135" width="34" height="32" rx="10"/>
   <rect x="157"
         y="133"
         width="34"
         height="32"
         class="terminal"
         rx="10"/>
   <text class="terminal" x="167" y="153">((</text>
   <a xmlns:xlink="http://www.w3.org/1999/xlink"
      xlink:href="#coordinates"
      xlink:title="coordinates">
      <rect x="213" y="135" width="94" height="32"/>
      <rect x="211" y="133" width="94" height="32" class="nonterminal"/>
      <text class="nonterminal" x="221" y="153">coordinates</text>
   </a>
   <rect x="327" y="135" width="24" height="32" rx="10"/>
   <rect x="325"
         y="133"
         width="24"
         height="32"
         class="terminal"
         rx="10"/>
   <text class="terminal" x="335" y="153">,</text>
   <a xmlns:xlink="http://www.w3.org/1999/xlink"
      xlink:href="#coordinates"
      xlink:title="coordinates">
      <rect x="371" y="135" width="94" height="32"/>
      <rect x="369" y="133" width="94" height="32" class="nonterminal"/>
      <text class="nonterminal" x="379" y="153">coordinates</text>
   </a>
   <rect x="505" y="135" width="24" height="32" rx="10"/>
   <rect x="503"
         y="133"
         width="24"
         height="32"
         class="terminal"
         rx="10"/>
   <text class="terminal" x="513" y="153">,</text>
   <a xmlns:xlink="http://www.w3.org/1999/xlink"
      xlink:href="#coordinates"
      xlink:title="coordinates">
      <rect x="549" y="135" width="94" height="32"/>
      <rect x="547" y="133" width="94" height="32" class="nonterminal"/>
      <text class="nonterminal" x="557" y="153">coordinates</text>
   </a>
   <rect x="683" y="135" width="34" height="32" rx="10"/>
   <rect x="681"
         y="133"
         width="34"
         height="32"
         class="terminal"
         rx="10"/>
   <text class="terminal" x="691" y="153">))</text>
   <path class="line"
         d="m17 17 h2 m40 0 h10 m64 0 h10 m0 0 h10 m26 0 h10 m0 0 h240 m-390 0 h20 m370 0 h20 m-410 0 q10 0 10 10 m390 0 q0 -10 10 -10 m-400 10 v46 m390 0 v-46 m-390 46 q0 10 10 10 m370 0 q10 0 10 -10 m-380 10 h10 m106 0 h10 m0 0 h10 m26 0 h10 m20 0 h10 m94 0 h10 m0 0 h10 m24 0 h10 m-178 0 l20 0 m-1 0 q-9 0 -9 -10 l0 -12 q0 -10 10 -10 m158 32 l20 0 m-20 0 q10 0 10 -10 l0 -12 q0 -10 -10 -10 m-158 0 h10 m0 0 h148 m40 -34 h10 m94 0 h10 m0 0 h10 m26 0 h10 m0 0 h116 m-706 0 h20 m686 0 h20 m-726 0 q10 0 10 10 m706 0 q0 -10 10 -10 m-716 10 v112 m706 0 v-112 m-706 112 q0 10 10 10 m686 0 q10 0 10 -10 m-696 10 h10 m88 0 h10 m0 0 h10 m34 0 h10 m0 0 h10 m94 0 h10 m0 0 h10 m24 0 h10 m0 0 h10 m94 0 h10 m20 0 h10 m24 0 h10 m0 0 h10 m94 0 h10 m-178 0 l20 0 m-1 0 q-9 0 -9 -10 l0 -12 q0 -10 10 -10 m158 32 l20 0 m-20 0 q10 0 10 -10 l0 -12 q0 -10 -10 -10 m-158 0 h10 m0 0 h148 m20 32 h10 m34 0 h10 m23 -132 h-3"/>
   <polygon points="755 17 763 13 763 21"/>
   <polygon points="755 17 747 13 747 21"/>
</svg>
