<?xml version="1.0" encoding="UTF-8"?>
<svg xmlns="http://www.w3.org/2000/svg" width="413" height="81">
   <defs>
      <style type="text/css">
    @namespace "http://www.w3.org/2000/svg";
    .line                 {fill: none; stroke: #332900; stroke-width: 1;}
    .bold-line            {stroke: #141000; shape-rendering: crispEdges; stroke-width: 2;}
    .thin-line            {stroke: #1F1800; shape-rendering: crispEdges}
    .filled               {fill: #332900; stroke: none;}
    text.terminal         {font-family: Verdana, Sans-serif;
                            font-size: 12px;
                            fill: #141000;
                            font-weight: bold;
                          }
    text.nonterminal      {font-family: Verdana, Sans-serif;
                            font-size: 12px;
                            fill: #1A1400;
                            font-weight: normal;
                          }
    text.regexp           {font-family: Verdana, Sans-serif;
                            font-size: 12px;
                            fill: #1F1800;
                            font-weight: normal;
                          }
    rect, circle, polygon {fill: #332900; stroke: #332900;}
    rect.terminal         {fill: #FFDB4D; stroke: #332900; stroke-width: 1;}
    rect.nonterminal      {fill: #FFEC9E; stroke: #332900; stroke-width: 1;}
    rect.text             {fill: none; stroke: none;}
    polygon.regexp        {fill: #FFF4C7; stroke: #332900; stroke-width: 1;}
  </style>
   </defs>
   <polygon points="9 17 1 13 1 21"/>
   <polygon points="17 17 9 13 9 21"/>
   <a xmlns:xlink="http://www.w3.org/1999/xlink"
      xlink:href="#FunctionName"
      xlink:title="FunctionName">
      <rect x="31" y="3" width="110" height="32"/>
      <rect x="29" y="1" width="110" height="32" class="nonterminal"/>
      <text class="nonterminal" x="39" y="21">FunctionName</text>
   </a>
   <rect x="161" y="3" width="26" height="32" rx="10"/>
   <rect x="159"
         y="1"
         width="26"
         height="32"
         class="terminal"
         rx="10"/>
   <text class="terminal" x="169" y="21">(</text>
   <a xmlns:xlink="http://www.w3.org/1999/xlink"
      xlink:href="#EventName"
      xlink:title="EventName">
      <rect x="227" y="3" width="92" height="32"/>
      <rect x="225" y="1" width="92" height="32" class="nonterminal"/>
      <text class="nonterminal" x="235" y="21">EventName</text>
   </a>
   <a xmlns:xlink="http://www.w3.org/1999/xlink"
      xlink:href="#Function"
      xlink:title="Function">
      <rect x="227" y="47" width="74" height="32"/>
      <rect x="225" y="45" width="74" height="32" class="nonterminal"/>
      <text class="nonterminal" x="235" y="65">Function</text>
   </a>
   <rect x="359" y="3" width="26" height="32" rx="10"/>
   <rect x="357"
         y="1"
         width="26"
         height="32"
         class="terminal"
         rx="10"/>
   <text class="terminal" x="367" y="21">)</text>
   <path class="line"
         d="m17 17 h2 m0 0 h10 m110 0 h10 m0 0 h10 m26 0 h10 m20 0 h10 m92 0 h10 m-132 0 h20 m112 0 h20 m-152 0 q10 0 10 10 m132 0 q0 -10 10 -10 m-142 10 v24 m132 0 v-24 m-132 24 q0 10 10 10 m112 0 q10 0 10 -10 m-122 10 h10 m74 0 h10 m0 0 h18 m20 -44 h10 m26 0 h10 m3 0 h-3"/>
   <polygon points="403 17 411 13 411 21"/>
   <polygon points="403 17 395 13 395 21"/>
</svg>
