<?xml version="1.0" encoding="UTF-8"?>
<svg xmlns="http://www.w3.org/2000/svg" width="441" height="53">
   <defs>
      <style type="text/css">
    @namespace "http://www.w3.org/2000/svg";
    .line                 {fill: none; stroke: #332900; stroke-width: 1;}
    .bold-line            {stroke: #141000; shape-rendering: crispEdges; stroke-width: 2;}
    .thin-line            {stroke: #1F1800; shape-rendering: crispEdges}
    .filled               {fill: #332900; stroke: none;}
    text.terminal         {font-family: Verdana, Sans-serif;
                            font-size: 12px;
                            fill: #141000;
                            font-weight: bold;
                          }
    text.nonterminal      {font-family: Verdana, Sans-serif;
                            font-size: 12px;
                            fill: #1A1400;
                            font-weight: normal;
                          }
    text.regexp           {font-family: Verdana, Sans-serif;
                            font-size: 12px;
                            fill: #1F1800;
                            font-weight: normal;
                          }
    rect, circle, polygon {fill: #332900; stroke: #332900;}
    rect.terminal         {fill: #FFDB4D; stroke: #332900; stroke-width: 1;}
    rect.nonterminal      {fill: #FFEC9E; stroke: #332900; stroke-width: 1;}
    rect.text             {fill: none; stroke: none;}
    polygon.regexp        {fill: #FFF4C7; stroke: #332900; stroke-width: 1;}
  </style>
   </defs>
   <polygon points="9 33 1 29 1 37"/>
   <polygon points="17 33 9 29 9 37"/>
   <a xmlns:xlink="http://www.w3.org/1999/xlink"
      xlink:href="#DatastreamList"
      xlink:title="DatastreamList">
      <rect x="31" y="19" width="116" height="32"/>
      <rect x="29" y="17" width="116" height="32" class="nonterminal"/>
      <text class="nonterminal" x="39" y="37">DatastreamList</text>
   </a>
   <a xmlns:xlink="http://www.w3.org/1999/xlink"
      xlink:href="#Event"
      xlink:title="Event">
      <rect x="187" y="19" width="56" height="32"/>
      <rect x="185" y="17" width="56" height="32" class="nonterminal"/>
      <text class="nonterminal" x="195" y="37">Event</text>
   </a>
   <a xmlns:xlink="http://www.w3.org/1999/xlink"
      xlink:href="#Notification"
      xlink:title="Notification">
      <rect x="303" y="19" width="90" height="32"/>
      <rect x="301" y="17" width="90" height="32" class="nonterminal"/>
      <text class="nonterminal" x="311" y="37">Notification</text>
   </a>
   <path class="line"
         d="m17 33 h2 m0 0 h10 m116 0 h10 m20 0 h10 m56 0 h10 m-96 0 l20 0 m-1 0 q-9 0 -9 -10 l0 -12 q0 -10 10 -10 m76 32 l20 0 m-20 0 q10 0 10 -10 l0 -12 q0 -10 -10 -10 m-76 0 h10 m0 0 h66 m40 32 h10 m90 0 h10 m-130 0 l20 0 m-1 0 q-9 0 -9 -10 l0 -12 q0 -10 10 -10 m110 32 l20 0 m-20 0 q10 0 10 -10 l0 -12 q0 -10 -10 -10 m-110 0 h10 m0 0 h100 m23 32 h-3"/>
   <polygon points="431 33 439 29 439 37"/>
   <polygon points="431 33 423 29 423 37"/>
</svg>
