<?xml version="1.0" encoding="UTF-8"?>
<svg xmlns="http://www.w3.org/2000/svg" width="519" height="113">
   <defs>
      <style type="text/css">
    @namespace "http://www.w3.org/2000/svg";
    .line                 {fill: none; stroke: #332900; stroke-width: 1;}
    .bold-line            {stroke: #141000; shape-rendering: crispEdges; stroke-width: 2;}
    .thin-line            {stroke: #1F1800; shape-rendering: crispEdges}
    .filled               {fill: #332900; stroke: none;}
    text.terminal         {font-family: Verdana, Sans-serif;
                            font-size: 12px;
                            fill: #141000;
                            font-weight: bold;
                          }
    text.nonterminal      {font-family: Verdana, Sans-serif;
                            font-size: 12px;
                            fill: #1A1400;
                            font-weight: normal;
                          }
    text.regexp           {font-family: Verdana, Sans-serif;
                            font-size: 12px;
                            fill: #1F1800;
                            font-weight: normal;
                          }
    rect, circle, polygon {fill: #332900; stroke: #332900;}
    rect.terminal         {fill: #FFDB4D; stroke: #332900; stroke-width: 1;}
    rect.nonterminal      {fill: #FFEC9E; stroke: #332900; stroke-width: 1;}
    rect.text             {fill: none; stroke: none;}
    polygon.regexp        {fill: #FFF4C7; stroke: #332900; stroke-width: 1;}
  </style>
   </defs>
   <polygon points="9 61 1 57 1 65"/>
   <polygon points="17 61 9 57 9 65"/>
   <rect x="31" y="47" width="26" height="32" rx="10"/>
   <rect x="29"
         y="45"
         width="26"
         height="32"
         class="terminal"
         rx="10"/>
   <text class="terminal" x="39" y="65">[</text>
   <a xmlns:xlink="http://www.w3.org/1999/xlink"
      xlink:href="#EventName"
      xlink:title="EventName">
      <rect x="117" y="79" width="92" height="32"/>
      <rect x="115" y="77" width="92" height="32" class="nonterminal"/>
      <text class="nonterminal" x="125" y="97">EventName</text>
   </a>
   <rect x="229" y="79" width="24" height="32" rx="10"/>
   <rect x="227"
         y="77"
         width="24"
         height="32"
         class="terminal"
         rx="10"/>
   <text class="terminal" x="237" y="97">.</text>
   <a xmlns:xlink="http://www.w3.org/1999/xlink"
      xlink:href="#DatastreamName"
      xlink:title="DatastreamName">
      <rect x="293" y="47" width="132" height="32"/>
      <rect x="291" y="45" width="132" height="32" class="nonterminal"/>
      <text class="nonterminal" x="301" y="65">DatastreamName</text>
   </a>
   <rect x="97" y="3" width="24" height="32" rx="10"/>
   <rect x="95"
         y="1"
         width="24"
         height="32"
         class="terminal"
         rx="10"/>
   <text class="terminal" x="105" y="21">,</text>
   <rect x="465" y="47" width="26" height="32" rx="10"/>
   <rect x="463"
         y="45"
         width="26"
         height="32"
         class="terminal"
         rx="10"/>
   <text class="terminal" x="473" y="65">]</text>
   <path class="line"
         d="m17 61 h2 m0 0 h10 m26 0 h10 m40 0 h10 m0 0 h146 m-176 0 h20 m156 0 h20 m-196 0 q10 0 10 10 m176 0 q0 -10 10 -10 m-186 10 v12 m176 0 v-12 m-176 12 q0 10 10 10 m156 0 q10 0 10 -10 m-166 10 h10 m92 0 h10 m0 0 h10 m24 0 h10 m20 -32 h10 m132 0 h10 m-368 0 l20 0 m-1 0 q-9 0 -9 -10 l0 -24 q0 -10 10 -10 m348 44 l20 0 m-20 0 q10 0 10 -10 l0 -24 q0 -10 -10 -10 m-348 0 h10 m24 0 h10 m0 0 h304 m20 44 h10 m26 0 h10 m3 0 h-3"/>
   <polygon points="509 61 517 57 517 65"/>
   <polygon points="509 61 501 57 501 65"/>
</svg>
