<?xml version="1.0" encoding="UTF-8"?>
<svg xmlns="http://www.w3.org/2000/svg" width="425" height="85">
   <defs>
      <style type="text/css">
    @namespace "http://www.w3.org/2000/svg";
    .line                 {fill: none; stroke: #332900; stroke-width: 1;}
    .bold-line            {stroke: #141000; shape-rendering: crispEdges; stroke-width: 2;}
    .thin-line            {stroke: #1F1800; shape-rendering: crispEdges}
    .filled               {fill: #332900; stroke: none;}
    text.terminal         {font-family: Verdana, Sans-serif;
                            font-size: 12px;
                            fill: #141000;
                            font-weight: bold;
                          }
    text.nonterminal      {font-family: Verdana, Sans-serif;
                            font-size: 12px;
                            fill: #1A1400;
                            font-weight: normal;
                          }
    text.regexp           {font-family: Verdana, Sans-serif;
                            font-size: 12px;
                            fill: #1F1800;
                            font-weight: normal;
                          }
    rect, circle, polygon {fill: #332900; stroke: #332900;}
    rect.terminal         {fill: #FFDB4D; stroke: #332900; stroke-width: 1;}
    rect.nonterminal      {fill: #FFEC9E; stroke: #332900; stroke-width: 1;}
    rect.text             {fill: none; stroke: none;}
    polygon.regexp        {fill: #FFF4C7; stroke: #332900; stroke-width: 1;}
  </style>
   </defs>
   <polygon points="9 33 1 29 1 37"/>
   <polygon points="17 33 9 29 9 37"/>
   <rect x="51" y="51" width="26" height="32" rx="10"/>
   <rect x="49"
         y="49"
         width="26"
         height="32"
         class="terminal"
         rx="10"/>
   <text class="terminal" x="59" y="69">-</text>
   <a xmlns:xlink="http://www.w3.org/1999/xlink"
      xlink:href="#Digit"
      xlink:title="Digit">
      <rect x="137" y="19" width="48" height="32"/>
      <rect x="135" y="17" width="48" height="32" class="nonterminal"/>
      <text class="nonterminal" x="145" y="37">Digit</text>
   </a>
   <rect x="245" y="19" width="24" height="32" rx="10"/>
   <rect x="243"
         y="17"
         width="24"
         height="32"
         class="terminal"
         rx="10"/>
   <text class="terminal" x="253" y="37">.</text>
   <a xmlns:xlink="http://www.w3.org/1999/xlink"
      xlink:href="#Digit"
      xlink:title="Digit">
      <rect x="309" y="19" width="48" height="32"/>
      <rect x="307" y="17" width="48" height="32" class="nonterminal"/>
      <text class="nonterminal" x="317" y="37">Digit</text>
   </a>
   <path class="line"
         d="m17 33 h2 m20 0 h10 m0 0 h36 m-66 0 h20 m46 0 h20 m-86 0 q10 0 10 10 m66 0 q0 -10 10 -10 m-76 10 v12 m66 0 v-12 m-66 12 q0 10 10 10 m46 0 q10 0 10 -10 m-56 10 h10 m26 0 h10 m40 -32 h10 m48 0 h10 m-88 0 l20 0 m-1 0 q-9 0 -9 -10 l0 -12 q0 -10 10 -10 m68 32 l20 0 m-20 0 q10 0 10 -10 l0 -12 q0 -10 -10 -10 m-68 0 h10 m0 0 h58 m40 32 h10 m24 0 h10 m20 0 h10 m48 0 h10 m-88 0 l20 0 m-1 0 q-9 0 -9 -10 l0 -12 q0 -10 10 -10 m68 32 l20 0 m-20 0 q10 0 10 -10 l0 -12 q0 -10 -10 -10 m-68 0 h10 m0 0 h58 m-152 32 h20 m152 0 h20 m-192 0 q10 0 10 10 m172 0 q0 -10 10 -10 m-182 10 v14 m172 0 v-14 m-172 14 q0 10 10 10 m152 0 q10 0 10 -10 m-162 10 h10 m0 0 h142 m23 -34 h-3"/>
   <polygon points="415 33 423 29 423 37"/>
   <polygon points="415 33 407 29 407 37"/>
</svg>
