<?xml version="1.0" encoding="UTF-8"?>
<svg xmlns="http://www.w3.org/2000/svg" width="539" height="157">
   <defs>
      <style type="text/css">
    @namespace "http://www.w3.org/2000/svg";
    .line                 {fill: none; stroke: #332900; stroke-width: 1;}
    .bold-line            {stroke: #141000; shape-rendering: crispEdges; stroke-width: 2;}
    .thin-line            {stroke: #1F1800; shape-rendering: crispEdges}
    .filled               {fill: #332900; stroke: none;}
    text.terminal         {font-family: Verdana, Sans-serif;
                            font-size: 12px;
                            fill: #141000;
                            font-weight: bold;
                          }
    text.nonterminal      {font-family: Verdana, Sans-serif;
                            font-size: 12px;
                            fill: #1A1400;
                            font-weight: normal;
                          }
    text.regexp           {font-family: Verdana, Sans-serif;
                            font-size: 12px;
                            fill: #1F1800;
                            font-weight: normal;
                          }
    rect, circle, polygon {fill: #332900; stroke: #332900;}
    rect.terminal         {fill: #FFDB4D; stroke: #332900; stroke-width: 1;}
    rect.nonterminal      {fill: #FFEC9E; stroke: #332900; stroke-width: 1;}
    rect.text             {fill: none; stroke: none;}
    polygon.regexp        {fill: #FFF4C7; stroke: #332900; stroke-width: 1;}
  </style>
   </defs>
   <polygon points="9 17 1 13 1 21"/>
   <polygon points="17 17 9 13 9 21"/>
   <rect x="51" y="3" width="74" height="32" rx="10"/>
   <rect x="49"
         y="1"
         width="74"
         height="32"
         class="terminal"
         rx="10"/>
   <text class="terminal" x="59" y="21">periodic</text>
   <rect x="145" y="3" width="26" height="32" rx="10"/>
   <rect x="143"
         y="1"
         width="26"
         height="32"
         class="terminal"
         rx="10"/>
   <text class="terminal" x="153" y="21">(</text>
   <a xmlns:xlink="http://www.w3.org/1999/xlink"
      xlink:href="#Repetitions"
      xlink:title="Repetitions">
      <rect x="211" y="35" width="92" height="32"/>
      <rect x="209" y="33" width="92" height="32" class="nonterminal"/>
      <text class="nonterminal" x="219" y="53">Repetitions</text>
   </a>
   <rect x="343" y="3" width="24" height="32" rx="10"/>
   <rect x="341"
         y="1"
         width="24"
         height="32"
         class="terminal"
         rx="10"/>
   <text class="terminal" x="351" y="21">,</text>
   <a xmlns:xlink="http://www.w3.org/1999/xlink"
      xlink:href="#TimeInstance"
      xlink:title="TimeInstance">
      <rect x="387" y="3" width="104" height="32"/>
      <rect x="385" y="1" width="104" height="32" class="nonterminal"/>
      <text class="nonterminal" x="395" y="21">TimeInstance</text>
   </a>
   <a xmlns:xlink="http://www.w3.org/1999/xlink"
      xlink:href="#TimeWindow"
      xlink:title="TimeWindow">
      <rect x="51" y="79" width="100" height="32"/>
      <rect x="49" y="77" width="100" height="32" class="nonterminal"/>
      <text class="nonterminal" x="59" y="97">TimeWindow</text>
   </a>
   <a xmlns:xlink="http://www.w3.org/1999/xlink"
      xlink:href="#TimePattern"
      xlink:title="TimePattern">
      <rect x="51" y="123" width="96" height="32"/>
      <rect x="49" y="121" width="96" height="32" class="nonterminal"/>
      <text class="nonterminal" x="59" y="141">TimePattern</text>
   </a>
   <rect x="167" y="123" width="26" height="32" rx="10"/>
   <rect x="165"
         y="121"
         width="26"
         height="32"
         class="terminal"
         rx="10"/>
   <text class="terminal" x="175" y="141">)</text>
   <path class="line"
         d="m17 17 h2 m20 0 h10 m74 0 h10 m0 0 h10 m26 0 h10 m20 0 h10 m0 0 h102 m-132 0 h20 m112 0 h20 m-152 0 q10 0 10 10 m132 0 q0 -10 10 -10 m-142 10 v12 m132 0 v-12 m-132 12 q0 10 10 10 m112 0 q10 0 10 -10 m-122 10 h10 m92 0 h10 m20 -32 h10 m24 0 h10 m0 0 h10 m104 0 h10 m-480 0 h20 m460 0 h20 m-500 0 q10 0 10 10 m480 0 q0 -10 10 -10 m-490 10 v56 m480 0 v-56 m-480 56 q0 10 10 10 m460 0 q10 0 10 -10 m-470 10 h10 m100 0 h10 m0 0 h340 m-470 -10 v20 m480 0 v-20 m-480 20 v24 m480 0 v-24 m-480 24 q0 10 10 10 m460 0 q10 0 10 -10 m-470 10 h10 m96 0 h10 m0 0 h10 m26 0 h10 m0 0 h298 m23 -120 h-3"/>
   <polygon points="529 17 537 13 537 21"/>
   <polygon points="529 17 521 13 521 21"/>
</svg>
