<?xml version="1.0" encoding="UTF-8"?>
<svg xmlns="http://www.w3.org/2000/svg" width="585" height="171">
   <defs>
      <style type="text/css">
    @namespace "http://www.w3.org/2000/svg";
    .line                 {fill: none; stroke: #332900; stroke-width: 1;}
    .bold-line            {stroke: #141000; shape-rendering: crispEdges; stroke-width: 2;}
    .thin-line            {stroke: #1F1800; shape-rendering: crispEdges}
    .filled               {fill: #332900; stroke: none;}
    text.terminal         {font-family: Verdana, Sans-serif;
                            font-size: 12px;
                            fill: #141000;
                            font-weight: bold;
                          }
    text.nonterminal      {font-family: Verdana, Sans-serif;
                            font-size: 12px;
                            fill: #1A1400;
                            font-weight: normal;
                          }
    text.regexp           {font-family: Verdana, Sans-serif;
                            font-size: 12px;
                            fill: #1F1800;
                            font-weight: normal;
                          }
    rect, circle, polygon {fill: #332900; stroke: #332900;}
    rect.terminal         {fill: #FFDB4D; stroke: #332900; stroke-width: 1;}
    rect.nonterminal      {fill: #FFEC9E; stroke: #332900; stroke-width: 1;}
    rect.text             {fill: none; stroke: none;}
    polygon.regexp        {fill: #FFF4C7; stroke: #332900; stroke-width: 1;}
  </style>
   </defs>
   <polygon points="9 51 1 47 1 55"/>
   <polygon points="17 51 9 47 9 55"/>
   <rect x="31" y="37" width="70" height="32" rx="10"/>
   <rect x="29"
         y="35"
         width="70"
         height="32"
         class="terminal"
         rx="10"/>
   <text class="terminal" x="39" y="55">pattern</text>
   <rect x="121" y="37" width="26" height="32" rx="10"/>
   <rect x="119"
         y="35"
         width="26"
         height="32"
         class="terminal"
         rx="10"/>
   <text class="terminal" x="129" y="55">(</text>
   <a xmlns:xlink="http://www.w3.org/1999/xlink"
      xlink:href="#TimeInstance"
      xlink:title="TimeInstance">
      <rect x="187" y="3" width="104" height="32"/>
      <rect x="185" y="1" width="104" height="32" class="nonterminal"/>
      <text class="nonterminal" x="195" y="21">TimeInstance</text>
   </a>
   <rect x="331" y="37" width="24" height="32" rx="10"/>
   <rect x="329"
         y="35"
         width="24"
         height="32"
         class="terminal"
         rx="10"/>
   <text class="terminal" x="339" y="55">,</text>
   <a xmlns:xlink="http://www.w3.org/1999/xlink"
      xlink:href="#TimeInstance"
      xlink:title="TimeInstance">
      <rect x="395" y="3" width="104" height="32"/>
      <rect x="393" y="1" width="104" height="32" class="nonterminal"/>
      <text class="nonterminal" x="403" y="21">TimeInstance</text>
   </a>
   <rect x="539" y="37" width="24" height="32" rx="10"/>
   <rect x="537"
         y="35"
         width="24"
         height="32"
         class="terminal"
         rx="10"/>
   <text class="terminal" x="547" y="55">,</text>
   <a xmlns:xlink="http://www.w3.org/1999/xlink"
      xlink:href="#TimeWindow"
      xlink:title="TimeWindow">
      <rect x="391" y="103" width="100" height="32"/>
      <rect x="389" y="101" width="100" height="32" class="nonterminal"/>
      <text class="nonterminal" x="399" y="121">TimeWindow</text>
   </a>
   <rect x="531" y="137" width="26" height="32" rx="10"/>
   <rect x="529"
         y="135"
         width="26"
         height="32"
         class="terminal"
         rx="10"/>
   <text class="terminal" x="539" y="155">)</text>
   <path class="line"
         d="m17 51 h2 m0 0 h10 m70 0 h10 m0 0 h10 m26 0 h10 m20 0 h10 m0 0 h114 m-144 0 l20 0 m-1 0 q-9 0 -9 -10 l0 -14 q0 -10 10 -10 m124 34 l20 0 m-20 0 q10 0 10 -10 l0 -14 q0 -10 -10 -10 m-124 0 h10 m104 0 h10 m20 34 h10 m24 0 h10 m20 0 h10 m0 0 h114 m-144 0 l20 0 m-1 0 q-9 0 -9 -10 l0 -14 q0 -10 10 -10 m124 34 l20 0 m-20 0 q10 0 10 -10 l0 -14 q0 -10 -10 -10 m-124 0 h10 m104 0 h10 m20 34 h10 m24 0 h10 m2 0 l2 0 m2 0 l2 0 m2 0 l2 0 m-236 100 l2 0 m2 0 l2 0 m2 0 l2 0 m22 0 h10 m0 0 h110 m-140 0 l20 0 m-1 0 q-9 0 -9 -10 l0 -14 q0 -10 10 -10 m120 34 l20 0 m-20 0 q10 0 10 -10 l0 -14 q0 -10 -10 -10 m-120 0 h10 m100 0 h10 m20 34 h10 m26 0 h10 m3 0 h-3"/>
   <polygon points="575 151 583 147 583 155"/>
   <polygon points="575 151 567 147 567 155"/>
</svg>
