<?xml version="1.0" encoding="UTF-8"?>
<svg xmlns="http://www.w3.org/2000/svg" width="533" height="155">
   <defs>
      <style type="text/css">
    @namespace "http://www.w3.org/2000/svg";
    .line                 {fill: none; stroke: #332900; stroke-width: 1;}
    .bold-line            {stroke: #141000; shape-rendering: crispEdges; stroke-width: 2;}
    .thin-line            {stroke: #1F1800; shape-rendering: crispEdges}
    .filled               {fill: #332900; stroke: none;}
    text.terminal         {font-family: Verdana, Sans-serif;
                            font-size: 12px;
                            fill: #141000;
                            font-weight: bold;
                          }
    text.nonterminal      {font-family: Verdana, Sans-serif;
                            font-size: 12px;
                            fill: #1A1400;
                            font-weight: normal;
                          }
    text.regexp           {font-family: Verdana, Sans-serif;
                            font-size: 12px;
                            fill: #1F1800;
                            font-weight: normal;
                          }
    rect, circle, polygon {fill: #332900; stroke: #332900;}
    rect.terminal         {fill: #FFDB4D; stroke: #332900; stroke-width: 1;}
    rect.nonterminal      {fill: #FFEC9E; stroke: #332900; stroke-width: 1;}
    rect.text             {fill: none; stroke: none;}
    polygon.regexp        {fill: #FFF4C7; stroke: #332900; stroke-width: 1;}
  </style>
   </defs>
   <polygon points="9 17 1 13 1 21"/>
   <polygon points="17 17 9 13 9 21"/>
   <a xmlns:xlink="http://www.w3.org/1999/xlink"
      xlink:href="#Hour"
      xlink:title="Hour">
      <rect x="31" y="3" width="50" height="32"/>
      <rect x="29" y="1" width="50" height="32" class="nonterminal"/>
      <text class="nonterminal" x="39" y="21">Hour</text>
   </a>
   <rect x="101" y="3" width="24" height="32" rx="10"/>
   <rect x="99"
         y="1"
         width="24"
         height="32"
         class="terminal"
         rx="10"/>
   <text class="terminal" x="109" y="21">:</text>
   <a xmlns:xlink="http://www.w3.org/1999/xlink"
      xlink:href="#Minute"
      xlink:title="Minute">
      <rect x="145" y="3" width="62" height="32"/>
      <rect x="143" y="1" width="62" height="32" class="nonterminal"/>
      <text class="nonterminal" x="153" y="21">Minute</text>
   </a>
   <rect x="227" y="3" width="24" height="32" rx="10"/>
   <rect x="225"
         y="1"
         width="24"
         height="32"
         class="terminal"
         rx="10"/>
   <text class="terminal" x="235" y="21">:</text>
   <a xmlns:xlink="http://www.w3.org/1999/xlink"
      xlink:href="#Second"
      xlink:title="Second">
      <rect x="271" y="3" width="66" height="32"/>
      <rect x="269" y="1" width="66" height="32" class="nonterminal"/>
      <text class="nonterminal" x="279" y="21">Second</text>
   </a>
   <rect x="377" y="35" width="24" height="32" rx="10"/>
   <rect x="375"
         y="33"
         width="24"
         height="32"
         class="terminal"
         rx="10"/>
   <text class="terminal" x="385" y="53">.</text>
   <a xmlns:xlink="http://www.w3.org/1999/xlink"
      xlink:href="#Fraction"
      xlink:title="Fraction">
      <rect x="421" y="35" width="70" height="32"/>
      <rect x="419" y="33" width="70" height="32" class="nonterminal"/>
      <text class="nonterminal" x="429" y="53">Fraction</text>
   </a>
   <a xmlns:xlink="http://www.w3.org/1999/xlink"
      xlink:href="#timeZoneOffset"
      xlink:title="timeZoneOffset">
      <rect x="367" y="121" width="118" height="32"/>
      <rect x="365" y="119" width="118" height="32" class="nonterminal"/>
      <text class="nonterminal" x="375" y="139">timeZoneOffset</text>
   </a>
   <path class="line"
         d="m17 17 h2 m0 0 h10 m50 0 h10 m0 0 h10 m24 0 h10 m0 0 h10 m62 0 h10 m0 0 h10 m24 0 h10 m0 0 h10 m66 0 h10 m20 0 h10 m0 0 h124 m-154 0 h20 m134 0 h20 m-174 0 q10 0 10 10 m154 0 q0 -10 10 -10 m-164 10 v12 m154 0 v-12 m-154 12 q0 10 10 10 m134 0 q10 0 10 -10 m-144 10 h10 m24 0 h10 m0 0 h10 m70 0 h10 m22 -32 l2 0 m2 0 l2 0 m2 0 l2 0 m-208 86 l2 0 m2 0 l2 0 m2 0 l2 0 m22 0 h10 m0 0 h128 m-158 0 h20 m138 0 h20 m-178 0 q10 0 10 10 m158 0 q0 -10 10 -10 m-168 10 v12 m158 0 v-12 m-158 12 q0 10 10 10 m138 0 q10 0 10 -10 m-148 10 h10 m118 0 h10 m23 -32 h-3"/>
   <polygon points="523 103 531 99 531 107"/>
   <polygon points="523 103 515 99 515 107"/>
</svg>
