<?xml version="1.0" encoding="UTF-8"?>
<svg xmlns="http://www.w3.org/2000/svg" width="161" height="301">
   <defs>
      <style type="text/css">
    @namespace "http://www.w3.org/2000/svg";
    .line                 {fill: none; stroke: #332900; stroke-width: 1;}
    .bold-line            {stroke: #141000; shape-rendering: crispEdges; stroke-width: 2;}
    .thin-line            {stroke: #1F1800; shape-rendering: crispEdges}
    .filled               {fill: #332900; stroke: none;}
    text.terminal         {font-family: Verdana, Sans-serif;
                            font-size: 12px;
                            fill: #141000;
                            font-weight: bold;
                          }
    text.nonterminal      {font-family: Verdana, Sans-serif;
                            font-size: 12px;
                            fill: #1A1400;
                            font-weight: normal;
                          }
    text.regexp           {font-family: Verdana, Sans-serif;
                            font-size: 12px;
                            fill: #1F1800;
                            font-weight: normal;
                          }
    rect, circle, polygon {fill: #332900; stroke: #332900;}
    rect.terminal         {fill: #FFDB4D; stroke: #332900; stroke-width: 1;}
    rect.nonterminal      {fill: #FFEC9E; stroke: #332900; stroke-width: 1;}
    rect.text             {fill: none; stroke: none;}
    polygon.regexp        {fill: #FFF4C7; stroke: #332900; stroke-width: 1;}
  </style>
   </defs>
   <polygon points="9 17 1 13 1 21"/>
   <polygon points="17 17 9 13 9 21"/>
   <rect x="51" y="3" width="42" height="32" rx="10"/>
   <rect x="49"
         y="1"
         width="42"
         height="32"
         class="terminal"
         rx="10"/>
   <text class="terminal" x="59" y="21">sec</text>
   <rect x="51" y="47" width="44" height="32" rx="10"/>
   <rect x="49"
         y="45"
         width="44"
         height="32"
         class="terminal"
         rx="10"/>
   <text class="terminal" x="59" y="65">min</text>
   <rect x="51" y="91" width="50" height="32" rx="10"/>
   <rect x="49"
         y="89"
         width="50"
         height="32"
         class="terminal"
         rx="10"/>
   <text class="terminal" x="59" y="109">hour</text>
   <rect x="51" y="135" width="44" height="32" rx="10"/>
   <rect x="49"
         y="133"
         width="44"
         height="32"
         class="terminal"
         rx="10"/>
   <text class="terminal" x="59" y="153">day</text>
   <rect x="51" y="179" width="56" height="32" rx="10"/>
   <rect x="49"
         y="177"
         width="56"
         height="32"
         class="terminal"
         rx="10"/>
   <text class="terminal" x="59" y="197">week</text>
   <rect x="51" y="223" width="62" height="32" rx="10"/>
   <rect x="49"
         y="221"
         width="62"
         height="32"
         class="terminal"
         rx="10"/>
   <text class="terminal" x="59" y="241">month</text>
   <rect x="51" y="267" width="50" height="32" rx="10"/>
   <rect x="49"
         y="265"
         width="50"
         height="32"
         class="terminal"
         rx="10"/>
   <text class="terminal" x="59" y="285">year</text>
   <path class="line"
         d="m17 17 h2 m20 0 h10 m42 0 h10 m0 0 h20 m-102 0 h20 m82 0 h20 m-122 0 q10 0 10 10 m102 0 q0 -10 10 -10 m-112 10 v24 m102 0 v-24 m-102 24 q0 10 10 10 m82 0 q10 0 10 -10 m-92 10 h10 m44 0 h10 m0 0 h18 m-92 -10 v20 m102 0 v-20 m-102 20 v24 m102 0 v-24 m-102 24 q0 10 10 10 m82 0 q10 0 10 -10 m-92 10 h10 m50 0 h10 m0 0 h12 m-92 -10 v20 m102 0 v-20 m-102 20 v24 m102 0 v-24 m-102 24 q0 10 10 10 m82 0 q10 0 10 -10 m-92 10 h10 m44 0 h10 m0 0 h18 m-92 -10 v20 m102 0 v-20 m-102 20 v24 m102 0 v-24 m-102 24 q0 10 10 10 m82 0 q10 0 10 -10 m-92 10 h10 m56 0 h10 m0 0 h6 m-92 -10 v20 m102 0 v-20 m-102 20 v24 m102 0 v-24 m-102 24 q0 10 10 10 m82 0 q10 0 10 -10 m-92 10 h10 m62 0 h10 m-92 -10 v20 m102 0 v-20 m-102 20 v24 m102 0 v-24 m-102 24 q0 10 10 10 m82 0 q10 0 10 -10 m-92 10 h10 m50 0 h10 m0 0 h12 m23 -264 h-3"/>
   <polygon points="151 17 159 13 159 21"/>
   <polygon points="151 17 143 13 143 21"/>
</svg>
